<?xml version="1.0" encoding="UTF-8" standalone="no"?>
<!-- Generator: Adobe Illustrator 18.1.1, SVG Export Plug-In . SVG Version: 6.00 Build 0)  -->

<svg
   version="1.1"
   id="Layer_1"
   x="0px"
   y="0px"
   width="22"
   height="22"
   viewBox="0 0 22 22"
   enable-background="new 0 0 556 700"
   xml:space="preserve"
   sodipodi:docname="feather-v1.1-01.svg"
   xmlns:inkscape="http://www.inkscape.org/namespaces/inkscape"
   xmlns:sodipodi="http://sodipodi.sourceforge.net/DTD/sodipodi-0.dtd"
   xmlns="http://www.w3.org/2000/svg"
   xmlns:svg="http://www.w3.org/2000/svg"><defs
   id="defs770" /><sodipodi:namedview
   id="namedview768"
   pagecolor="#ffffff"
   bordercolor="#999999"
   borderopacity="1"
   inkscape:showpageshadow="0"
   inkscape:pageopacity="0"
   inkscape:pagecheckerboard="0"
   inkscape:deskcolor="#d1d1d1"
   showgrid="false" />
    <path
       fill="#444444"
       d="M 11,0 C 4.9,0 0,4.9 0,11 0,17.1 4.9,22 11,22 17.1,22 22,17.1 22,11 22,4.9 17.1,0 11,0 Z m 0,20 C 6,20 2,16 2,11 2,6 6,2 11,2 c 5,0 9,4 9,9 0,5 -4,9 -9,9 z M 13.7,8.3 10.2,11.8 8.8,10.4 C 8.4,10 7.8,10 7.4,10.4 7,10.8 7,11.4 7.4,11.8 l 2.1,2.1 c 0.4,0.4 1,0.4 1.4,0 l 4.2,-4.2 c 0.4,-0.4 0.4,-1 0,-1.4 -0.4,-0.4 -1.1,-0.4 -1.4,0 z"
       id="path681"
       inkscape:export-filename="../../../../../Gutierrez &amp; Asociados/Imagenes/Iconos/tic-icon.svg"
       inkscape:export-xdpi="96"
       inkscape:export-ydpi="96"
       style="fill:none;stroke:none" />
</svg>
